# xmcd CD database file
#
# Track frame offsets:
#	150
#	21401
#	43950
#	65030
#	87585
#	114017
#	137718
#	159436
#	180055
#	201479
#
# Disc length: 2904 seconds
#
# Revision: 0
# Processed by: cddbd v1.5.1PL2 Copyright (c) Steve Scherf et al.
# Submitted via: CDex 1.51
#
DISCID=880b560a
DTITLE=Beata Przybytek - Wonderland
DYEAR=2006
DGENRE=Jazz
TTITLE0=Crying' Through The Night
TTITLE1=As
TTITLE2=Have A Talk With God
TTITLE3=All In Love Is Fair
TTITLE4=Isn't She Lovely
TTITLE5=Lately
TTITLE6=My Eyes Don't Cry
TTITLE7=Summer Soft
TTITLE8=You Will Know
TTITLE9=You Are The Sunshine Of My Life
EXTD=YEAR: 2006
EXTT0=
EXTT1=
EXTT2=
EXTT3=
EXTT4=
EXTT5=
EXTT6=
EXTT7=
EXTT8=
EXTT9=
PLAYORDER=
